<mxfile host="drawio-plugin" modified="2021-08-18T16:03:05.114Z" agent="5.0 (Windows NT 6.2; Win64; x64) AppleWebKit/537.36 (KHTML, like Gecko) Chrome/89.0.4389.114 Safari/537.36" etag="G-AhMKr_V5YqW-C5n3ca" version="14.7.4" type="embed"><diagram id="HBUWv1KUKaViyYJC_9qQ" name="Page-1"><mxGraphModel dx="1655" dy="830" grid="1" gridSize="10" guides="1" tooltips="1" connect="1" arrows="1" fold="1" page="1" pageScale="1" pageWidth="640" pageHeight="409" math="0" shadow="0"><root><mxCell id="0"/><mxCell id="1" parent="0"/><mxCell id="eUGhSfrEYsO9ofLQ2rzT-5" style="edgeStyle=none;rounded=1;orthogonalLoop=1;jettySize=auto;html=1;exitX=0.5;exitY=1;exitDx=0;exitDy=0;entryX=0.5;entryY=0;entryDx=0;entryDy=0;strokeColor=#000000;" parent="1" source="mBkMi_G-tllOC6JL7qkQ-3" target="mBkMi_G-tllOC6JL7qkQ-6" edge="1"><mxGeometry relative="1" as="geometry"/></mxCell><mxCell id="mBkMi_G-tllOC6JL7qkQ-3" value="główne repozytorium" style="rounded=1;whiteSpace=wrap;html=1;fontSize=14;fillColor=#dae8fc;strokeColor=#6c8ebf;" parent="1" vertex="1"><mxGeometry x="165" y="10" width="210" height="60" as="geometry"/></mxCell><mxCell id="eUGhSfrEYsO9ofLQ2rzT-2" style="rounded=1;orthogonalLoop=1;jettySize=auto;html=1;exitX=0.5;exitY=1;exitDx=0;exitDy=0;entryX=0.5;entryY=0;entryDx=0;entryDy=0;edgeStyle=orthogonalEdgeStyle;" parent="1" source="mBkMi_G-tllOC6JL7qkQ-6" target="eUGhSfrEYsO9ofLQ2rzT-1" edge="1"><mxGeometry relative="1" as="geometry"><Array as="points"><mxPoint x="270" y="200"/><mxPoint x="395" y="200"/></Array></mxGeometry></mxCell><mxCell id="mBkMi_G-tllOC6JL7qkQ-6" value="submoduł głównego repozytorium" style="rounded=1;whiteSpace=wrap;html=1;fontSize=14;fillColor=#d5e8d4;strokeColor=#82b366;" parent="1" vertex="1"><mxGeometry x="165" y="100" width="210" height="60" as="geometry"/></mxCell><mxCell id="mBkMi_G-tllOC6JL7qkQ-7" value="sub-submoduł 1." style="rounded=1;whiteSpace=wrap;html=1;fontSize=14;fillColor=#f8cecc;strokeColor=#b85450;" parent="1" vertex="1"><mxGeometry x="20" y="230" width="210" height="60" as="geometry"/></mxCell><mxCell id="mBkMi_G-tllOC6JL7qkQ-9" value="" style="endArrow=classic;html=1;fontSize=14;exitX=0.5;exitY=1;exitDx=0;exitDy=0;entryX=0.5;entryY=0;entryDx=0;entryDy=0;edgeStyle=orthogonalEdgeStyle;" parent="1" source="mBkMi_G-tllOC6JL7qkQ-6" target="mBkMi_G-tllOC6JL7qkQ-7" edge="1"><mxGeometry width="50" height="50" relative="1" as="geometry"><mxPoint x="410" y="360" as="sourcePoint"/><mxPoint x="460" y="310" as="targetPoint"/><Array as="points"><mxPoint x="270" y="200"/><mxPoint x="125" y="200"/></Array></mxGeometry></mxCell><mxCell id="eUGhSfrEYsO9ofLQ2rzT-1" value="sub-submoduł 2." style="rounded=1;whiteSpace=wrap;html=1;fontSize=14;fillColor=#f8cecc;strokeColor=#b85450;" parent="1" vertex="1"><mxGeometry x="290" y="230" width="210" height="60" as="geometry"/></mxCell><mxCell id="eUGhSfrEYsO9ofLQ2rzT-17" style="edgeStyle=orthogonalEdgeStyle;curved=1;rounded=1;orthogonalLoop=1;jettySize=auto;html=1;exitX=0;exitY=0;exitDx=189.2;exitDy=80;exitPerimeter=0;entryX=0;entryY=0;entryDx=189.2;entryDy=80;entryPerimeter=0;strokeColor=#000000;" parent="1" source="eUGhSfrEYsO9ofLQ2rzT-11" target="eUGhSfrEYsO9ofLQ2rzT-16" edge="1"><mxGeometry relative="1" as="geometry"><Array as="points"><mxPoint x="630" y="190"/><mxPoint x="630" y="90"/></Array></mxGeometry></mxCell><mxCell id="eUGhSfrEYsO9ofLQ2rzT-11" value="&lt;span&gt;3. Aktualizacja submodułu. (Pobranie nowszych wersji sub-submodułów i aktualizacja &quot;dowiązania&quot;)&lt;/span&gt;" style="shape=callout;whiteSpace=wrap;html=1;perimeter=calloutPerimeter;fillColor=#e1d5e7;strokeColor=#9673a6;base=21;size=30;position=0.86;position2=0.86;" parent="1" vertex="1"><mxGeometry x="390" y="110" width="220" height="80" as="geometry"/></mxCell><mxCell id="eUGhSfrEYsO9ofLQ2rzT-15" style="edgeStyle=orthogonalEdgeStyle;curved=1;rounded=1;orthogonalLoop=1;jettySize=auto;html=1;exitX=0;exitY=0;exitDx=110;exitDy=80;exitPerimeter=0;entryX=0;entryY=0;entryDx=189.2;entryDy=80;entryPerimeter=0;strokeColor=#000000;" parent="1" source="eUGhSfrEYsO9ofLQ2rzT-12" target="eUGhSfrEYsO9ofLQ2rzT-11" edge="1"><mxGeometry relative="1" as="geometry"><Array as="points"><mxPoint x="395" y="390"/><mxPoint x="579" y="390"/></Array></mxGeometry></mxCell><mxCell id="eUGhSfrEYsO9ofLQ2rzT-12" value="&lt;span&gt;2. Aktualizacja sub-submodułu 2.&lt;/span&gt;" style="shape=callout;whiteSpace=wrap;html=1;perimeter=calloutPerimeter;fillColor=#e1d5e7;strokeColor=#9673a6;" parent="1" vertex="1"><mxGeometry x="285" y="300" width="220" height="80" as="geometry"/></mxCell><mxCell id="eUGhSfrEYsO9ofLQ2rzT-14" style="edgeStyle=orthogonalEdgeStyle;curved=1;rounded=1;orthogonalLoop=1;jettySize=auto;html=1;exitX=0;exitY=0;exitDx=110;exitDy=80;exitPerimeter=0;entryX=0;entryY=0;entryDx=110;entryDy=80;entryPerimeter=0;strokeColor=#000000;" parent="1" source="eUGhSfrEYsO9ofLQ2rzT-13" target="eUGhSfrEYsO9ofLQ2rzT-12" edge="1"><mxGeometry relative="1" as="geometry"><Array as="points"><mxPoint x="130" y="400"/><mxPoint x="395" y="400"/></Array></mxGeometry></mxCell><mxCell id="eUGhSfrEYsO9ofLQ2rzT-13" value="&lt;span&gt;1. Aktualizacja sub-submodułu 1.&lt;/span&gt;" style="shape=callout;whiteSpace=wrap;html=1;perimeter=calloutPerimeter;fillColor=#e1d5e7;strokeColor=#9673a6;" parent="1" vertex="1"><mxGeometry x="20" y="300" width="220" height="80" as="geometry"/></mxCell><mxCell id="eUGhSfrEYsO9ofLQ2rzT-16" value="&lt;span&gt;4. Aktualizacja głownego repozytorium. (Pobranie nowszej wersji submodułu i aktualizacja &quot;dowiązania&quot;)&lt;/span&gt;" style="shape=callout;whiteSpace=wrap;html=1;perimeter=calloutPerimeter;fillColor=#e1d5e7;strokeColor=#9673a6;base=21;size=30;position=0.86;position2=0.86;" parent="1" vertex="1"><mxGeometry x="390" y="10" width="220" height="80" as="geometry"/></mxCell></root></mxGraphModel></diagram></mxfile>